<?xml version="1.0" standalone="no"?>
<!DOCTYPE svg PUBLIC "-//W3C//DTD SVG 20010904//EN"
 "http://www.w3.org/TR/2001/REC-SVG-20010904/DTD/svg10.dtd">
<svg version="1.0" xmlns="http://www.w3.org/2000/svg"
 width="2560.000000pt" height="1756.000000pt" viewBox="0 0 2560.000000 1756.000000"
 preserveAspectRatio="xMidYMid meet">

<g transform="translate(0.000000,1756.000000) scale(0.100000,-0.100000)"
fill="#000000" stroke="none">
<path d="M6460 17549 c-267 -29 -545 -111 -781 -229 -252 -127 -758 -532
-1259 -1009 -282 -268 -225 -233 -450 -275 -1953 -366 -3066 -1072 -3573
-2266 -203 -480 -318 -1055 -367 -1835 -27 -442 -31 -1190 -28 -5685 l3 -4615
22 -91 c94 -404 385 -690 843 -827 378 -114 902 -125 1307 -27 500 121 827
405 929 809 19 72 30 163 45 366 93 1268 207 2605 335 3910 71 729 282 1227
631 1489 155 116 328 187 553 228 91 16 159 21 325 21 116 0 227 -3 248 -7
l37 -7 0 -2422 c0 -2604 -1 -2505 51 -2709 186 -732 833 -1206 1900 -1391
l125 -22 77 -91 c270 -322 701 -562 1262 -703 228 -57 472 -97 785 -128 139
-14 269 -18 635 -18 482 1 636 9 955 56 1065 154 1744 580 1993 1249 44 119
83 292 96 434 7 72 11 630 11 1629 l0 1520 43 -7 c126 -21 367 -48 555 -63
l212 -17 0 -1101 c0 -710 4 -1131 11 -1185 47 -384 191 -684 453 -945 131
-130 249 -219 420 -316 322 -184 773 -321 1266 -385 120 -16 139 -21 170 -46
153 -126 296 -221 446 -296 392 -197 861 -313 1479 -368 233 -21 890 -24 1125
-6 888 70 1519 278 1957 645 254 214 432 498 512 817 53 214 51 47 51 3422 0
1934 -4 3136 -9 3151 -8 21 0 48 46 154 110 253 213 600 268 898 49 266 67
458 72 791 21 1233 -253 2405 -786 3357 -34 60 -61 110 -61 113 0 2 288 4 640
4 l639 0 29 -42 c80 -115 288 -291 511 -431 149 -93 430 -234 554 -276 187
-65 401 -92 572 -71 331 40 566 194 645 424 36 107 35 214 -5 351 -5 17 5 24
77 49 441 154 635 453 486 751 -41 81 -160 197 -262 255 -100 56 -215 102
-335 134 -51 14 -95 27 -97 29 -2 2 1 32 7 67 23 147 -31 307 -145 428 -207
219 -614 283 -1001 156 -287 -94 -755 -430 -971 -698 l-69 -86 -1034 0 -1033
0 -122 118 c-258 249 -502 446 -806 649 -906 606 -2081 996 -3380 1122 -449
44 -522 46 -1465 45 -869 0 -1305 -7 -2755 -39 -355 -8 -773 -18 -930 -21
l-285 -7 -69 98 c-447 634 -1104 985 -1846 985 -347 0 -623 -61 -990 -218
l-165 -71 -75 44 c-231 135 -496 230 -755 270 -123 20 -391 27 -505 14z m472
-418 c62 -11 145 -30 183 -41 91 -28 225 -81 225 -89 0 -3 -51 -33 -113 -65
-176 -92 -528 -295 -807 -464 -140 -85 -269 -163 -285 -173 -24 -15 -75 -21
-255 -34 -316 -21 -564 -42 -783 -66 -104 -11 -193 -19 -199 -17 -16 6 325
306 540 476 156 124 338 251 428 299 152 81 361 149 543 178 135 21 388 19
523 -4z m2178 -32 c574 -53 1034 -344 1384 -874 480 -725 742 -1859 763 -3295
6 -401 -2 -607 -33 -875 -133 -1167 -618 -1828 -1530 -2085 -60 -17 -206 -48
-325 -70 -118 -22 -260 -53 -315 -69 -426 -127 -706 -382 -809 -735 -51 -177
-52 -409 -3 -498 70 -127 265 -141 351 -26 37 49 41 70 42 228 1 130 4 152 27
212 90 238 282 380 610 454 130 30 321 65 325 60 2 -2 -55 -304 -128 -672 -72
-368 -131 -686 -131 -706 -1 -48 30 -99 72 -120 31 -16 70 -18 353 -18 264 0
324 3 355 16 42 17 97 67 118 106 7 14 50 209 93 433 90 459 96 474 182 524
l50 29 477 5 c345 4 514 10 610 21 330 39 558 112 779 248 224 136 465 378
603 603 270 439 353 1032 205 1445 -49 135 -128 276 -210 373 -124 145 -390
271 -684 322 -124 22 -473 55 -580 55 l-93 0 6 83 c14 197 18 685 7 912 -57
1173 -237 2074 -554 2768 l-36 77 44 0 c25 0 323 7 662 15 1665 39 3138 60
3593 51 1171 -24 2101 -195 2985 -548 336 -134 870 -407 870 -446 0 -5 61 -51
135 -100 311 -206 562 -412 835 -686 202 -203 339 -360 495 -571 102 -136 248
-354 295 -440 l27 -50 -38 45 c-488 568 -1058 1009 -1739 1346 -127 63 -238
114 -246 114 -13 0 -883 -1167 -1983 -2659 -57 -77 -67 -96 -58 -110 73 -102
129 -225 163 -356 26 -101 36 -315 21 -445 -10 -78 -312 -1650 -368 -1910 -41
-191 -177 -323 -361 -350 -90 -13 -591 -13 -672 0 -173 29 -280 145 -288 315
-3 69 9 141 85 528 49 246 83 442 77 435 -7 -7 -735 -992 -1620 -2188 -884
-1196 -1613 -2181 -1621 -2189 -11 -12 -20 -12 -61 0 -26 7 -54 14 -62 14 -8
0 -557 -715 -1221 -1588 -664 -874 -1214 -1595 -1222 -1603 -13 -13 -21 -12
-65 11 -28 15 -69 29 -92 32 -22 3 -41 10 -41 14 0 21 -77 204 -140 334 -132
273 -289 469 -440 550 -73 39 -77 40 -175 40 -94 0 -105 -2 -170 -34 -92 -45
-237 -189 -320 -319 -55 -85 -62 -93 -85 -87 -14 3 -63 9 -110 12 -100 6 -175
-14 -275 -75 -110 -67 -254 -228 -350 -392 -21 -36 -47 -78 -57 -95 -17 -29
-18 55 -18 2453 0 2451 0 2483 -20 2521 -40 79 -144 133 -222 116 -112 -24
-178 -104 -178 -215 0 -27 -2 -50 -4 -50 -2 0 -124 40 -272 89 -365 122 -661
204 -962 269 l-83 18 73 49 c99 67 307 277 402 405 269 363 466 841 570 1385
41 219 76 536 76 707 l0 86 38 13 c113 36 254 130 348 232 97 105 214 298 214
355 0 38 -31 93 -64 113 -51 31 -90 34 -141 9 -39 -19 -50 -32 -85 -98 -195
-376 -541 -490 -877 -291 -31 19 -93 70 -137 115 -93 93 -110 104 -164 104
-79 0 -151 -82 -138 -155 9 -44 86 -138 174 -211 139 -116 285 -184 452 -211
l100 -16 -6 -101 c-40 -715 -220 -1329 -524 -1783 -175 -262 -372 -444 -593
-548 -149 -71 -224 -85 -439 -85 -580 0 -990 -150 -1323 -484 -364 -364 -561
-891 -635 -1691 -11 -121 -32 -332 -45 -470 -77 -781 -153 -1678 -260 -3055
-30 -385 -50 -593 -61 -630 -59 -201 -221 -365 -448 -455 -99 -39 -240 -73
-380 -91 -171 -23 -524 -15 -690 15 -407 73 -654 259 -733 552 -15 59 -17 202
-23 1809 -4 960 -13 2033 -20 2385 -14 745 -7 4918 9 5420 27 785 93 1373 206
1826 394 1577 1610 2366 4165 2703 118 16 578 66 603 66 11 0 9 -11 -9 -47
-57 -112 -5 -245 112 -283 22 -7 61 -10 96 -7 54 5 71 13 246 128 1087 713
2032 1237 2532 1403 239 80 497 109 750 85z m15188 -2120 c40 -13 78 -35 103
-58 35 -34 39 -43 39 -87 0 -96 16 -88 -218 -102 -247 -14 -504 -43 -737 -82
-93 -15 -171 -27 -173 -26 -9 9 252 197 361 260 96 55 236 103 352 120 63 9
211 -4 273 -25z m392 -672 c126 -24 253 -63 338 -105 74 -36 152 -98 152 -120
0 -30 -78 -95 -164 -137 -290 -141 -687 -164 -1326 -79 -303 41 -726 132 -838
180 l-37 16 32 14 c204 87 786 202 1233 244 145 13 510 5 610 -13z m-1205
-822 c279 -40 568 -65 829 -72 l238 -6 24 -51 c28 -59 29 -77 10 -114 -49 -93
-175 -142 -367 -142 -210 0 -412 71 -710 248 -130 78 -264 176 -229 169 14 -4
106 -18 205 -32z m-3780 -1113 c50 -7 142 -20 205 -28 330 -45 638 -165 822
-322 157 -133 294 -359 362 -594 111 -387 53 -921 -146 -1340 -278 -583 -809
-997 -1421 -1108 -209 -38 -379 -50 -835 -57 -244 -3 -445 -9 -447 -12 -2 -4
-38 -184 -80 -401 -86 -441 -100 -487 -182 -567 -59 -59 -149 -108 -228 -123
-41 -8 -165 -10 -385 -8 -363 4 -373 6 -464 76 -33 24 -61 59 -84 100 -65 119
-89 -32 332 2122 207 1059 381 1945 387 1969 29 123 135 240 262 287 l62 23
875 -2 c628 -2 900 -7 965 -15z m-7863 -857 c195 -28 344 -99 420 -200 75 -99
107 -262 88 -449 -44 -447 -222 -796 -469 -920 -193 -98 -511 -154 -916 -162
-229 -5 -253 -4 -285 13 -74 39 -105 134 -54 167 81 54 276 232 360 329 280
325 459 703 578 1218 l6 27 87 -5 c49 -3 132 -11 185 -18z m-5985 -4115 c70
-16 209 -52 308 -79 255 -70 423 -124 840 -270 l50 -18 2 -2109 2 -2109 -29
110 c-40 153 -93 302 -150 422 -55 115 -94 176 -160 248 -38 42 -50 64 -70
135 -60 216 -160 450 -255 596 -142 218 -294 293 -448 221 -65 -30 -154 -113
-210 -197 l-37 -55 0 1568 c0 1351 2 1567 14 1567 8 0 72 -13 143 -30z m251
-2975 c112 -47 247 -268 356 -584 49 -140 49 -150 1 -151 -35 0 -120 -56 -171
-113 -147 -162 -281 -512 -355 -932 -33 -181 -33 -453 -2 -565 12 -41 25 -83
29 -94 6 -16 4 -17 -17 -11 -102 29 -229 123 -304 225 -47 64 -108 189 -134
274 -82 268 -63 609 59 1083 137 529 323 867 488 882 7 0 29 -6 50 -14z m8735
-85 c108 -69 257 -342 348 -643 13 -42 14 -59 6 -61 -7 -2 -31 -9 -54 -15 -95
-26 -193 -134 -283 -313 -101 -201 -195 -529 -236 -823 -23 -169 -15 -369 19
-485 14 -47 24 -86 23 -88 -9 -9 -124 45 -174 82 -148 109 -255 293 -305 526
-73 338 57 1059 273 1507 83 173 169 290 245 331 36 20 89 14 138 -18z m2834
-721 c149 -72 322 -327 462 -679 l49 -123 -58 -39 c-246 -164 -496 -778 -550
-1351 -27 -279 55 -552 219 -739 23 -25 41 -48 41 -51 0 -2 -35 -15 -77 -28
-65 -20 -99 -24 -203 -24 -114 1 -133 4 -213 32 -160 56 -288 152 -397 296
-231 303 -289 660 -194 1187 68 381 186 751 334 1055 197 404 392 558 587 464z
m-11118 -73 c130 -67 289 -426 371 -836 58 -289 58 -485 1 -657 -53 -156 -152
-283 -267 -339 -52 -25 -70 -29 -149 -29 -79 0 -97 4 -150 29 -170 83 -293
304 -311 560 -27 388 215 1150 400 1261 47 29 66 30 105 11z m2408 -68 c112
-53 250 -223 363 -448 71 -143 154 -350 143 -360 -4 -3 -32 -24 -62 -45 -99
-71 -213 -235 -298 -428 -169 -384 -273 -900 -234 -1167 29 -196 111 -375 234
-507 l29 -31 -68 -22 c-97 -32 -269 -39 -367 -15 -253 60 -476 263 -598 545
-150 350 -137 747 48 1405 125 445 297 800 474 977 114 115 227 147 336 96z
m6303 -3 c153 -79 364 -663 400 -1108 21 -255 -46 -482 -183 -621 -260 -263
-611 -99 -712 334 -19 85 -19 283 1 419 62 421 237 874 374 967 40 28 79 30
120 9z m1679 -271 c2 -2 -10 -34 -27 -71 -206 -451 -354 -1067 -354 -1473 0
-237 49 -449 146 -638 25 -47 44 -87 43 -89 -9 -8 -180 42 -244 72 -221 102
-378 285 -445 521 -53 188 -15 487 106 826 171 480 409 803 632 857 35 8 132
5 143 -5z m-8715 -140 c12 -5 9 -18 -20 -82 -139 -305 -267 -745 -325 -1122
-32 -206 -32 -491 -1 -638 27 -122 69 -242 123 -347 22 -43 37 -80 35 -82 -10
-10 -175 39 -245 72 -205 97 -350 259 -424 473 -91 261 -8 705 218 1167 150
306 309 492 473 551 38 14 139 18 166 8z m10173 -390 c213 -123 479 -813 500
-1299 14 -315 -102 -572 -321 -716 -161 -106 -379 -106 -542 -1 -135 87 -244
245 -296 427 -20 69 -23 102 -23 245 1 185 14 274 75 515 48 191 105 346 185
510 96 194 189 307 281 340 47 17 85 11 141 -21z m-8705 -143 c207 -132 450
-738 498 -1242 18 -191 -9 -351 -87 -509 -63 -126 -172 -239 -283 -294 -209
-101 -419 -59 -595 118 -65 65 -90 99 -128 176 -78 159 -106 326 -87 515 31
306 135 667 266 928 147 293 282 393 416 308z m-2609 -966 c14 -66 28 -129 33
-139 7 -17 4 -18 -29 -12 -68 13 -281 74 -370 106 l-89 32 57 23 c31 13 75 36
98 51 89 58 202 198 245 301 l17 43 7 -143 c4 -87 16 -188 31 -262z"/>
<path d="M3245 14050 c-373 -42 -668 -140 -914 -304 -158 -106 -327 -277 -366
-370 -20 -48 -19 -112 4 -161 77 -167 302 -184 421 -31 65 86 208 218 306 283
306 206 703 324 1093 325 163 1 264 -12 384 -48 127 -38 229 -30 281 22 36 37
35 78 -5 115 -54 50 -322 123 -584 159 -106 14 -519 21 -620 10z"/>
<path d="M14310 13295 c-53 -17 -125 -83 -139 -129 -20 -62 -761 -3868 -761
-3907 0 -50 22 -90 64 -115 28 -17 58 -19 334 -22 352 -4 383 1 450 69 23 22
45 55 51 72 6 18 101 496 211 1062 110 567 206 1044 213 1060 18 45 87 109
133 123 53 15 699 17 809 1 191 -26 278 -80 310 -194 15 -49 17 -82 12 -180
-8 -158 -13 -182 -187 -1075 -83 -421 -150 -784 -150 -807 0 -53 44 -108 98
-123 48 -13 615 -13 663 0 52 14 99 49 131 95 24 36 45 131 207 965 100 509
185 957 191 995 25 175 3 384 -53 523 -84 204 -217 319 -452 387 -221 64 -447
85 -1005 94 -373 5 -418 8 -448 24 -42 23 -72 72 -72 117 0 20 34 208 75 418
41 210 75 400 75 423 0 50 -22 90 -64 115 -28 17 -57 19 -341 21 -244 2 -320
-1 -355 -12z"/>
<path d="M3965 12836 c-278 -59 -614 -194 -813 -328 -181 -121 -296 -285 -353
-499 -31 -117 -31 -309 0 -424 27 -103 78 -205 136 -275 25 -30 62 -89 82
-130 52 -107 168 -222 283 -278 137 -68 226 -85 399 -79 119 4 163 9 236 31
334 99 592 348 676 653 32 114 30 260 -5 369 -59 183 -194 323 -386 401 -192
77 -473 68 -677 -22 -31 -14 -58 -23 -60 -21 -4 4 38 30 227 144 366 221 576
416 505 469 -27 19 -124 15 -250 -11z m50 -651 c39 -8 108 -33 154 -56 233
-115 346 -361 284 -622 l-17 -72 -8 79 c-4 43 -13 95 -19 115 -72 221 -281
377 -483 358 -81 -8 -145 -36 -204 -91 -55 -51 -106 -146 -83 -154 51 -17 271
-134 266 -141 -4 -7 -186 -141 -248 -182 -15 -11 43 -100 108 -165 69 -69 160
-118 247 -132 59 -9 175 1 212 19 45 21 -70 -71 -142 -114 -120 -72 -243 -109
-383 -115 -209 -9 -356 43 -485 172 -119 120 -160 229 -152 410 7 166 68 302
196 437 196 209 495 309 757 254z m233 -440 c69 -58 99 -194 56 -252 -43 -58
-113 -32 -158 59 -69 139 4 276 102 193z"/>
<path d="M17855 12171 c-48 -21 -99 -77 -114 -123 -18 -58 -761 -3868 -761
-3905 0 -47 32 -97 74 -117 29 -14 81 -16 354 -16 l320 0 53 28 c98 51 99 53
189 517 44 226 83 418 86 429 10 32 77 98 119 117 36 17 73 19 400 19 542 0
783 19 1032 80 306 74 547 214 793 460 286 286 445 588 521 994 30 156 37 427
15 563 -31 200 -107 384 -221 534 -76 101 -151 163 -277 229 -188 99 -409 155
-741 190 -181 18 -263 20 -1000 20 -754 0 -804 -2 -842 -19z m1625 -655 c292
-47 430 -142 492 -339 69 -221 -9 -673 -163 -942 -53 -94 -163 -215 -241 -265
-66 -43 -232 -100 -373 -129 -203 -41 -341 -54 -606 -55 l-255 -1 -37 28 c-73
55 -77 18 83 834 78 400 149 743 157 761 21 44 95 108 141 121 57 16 683 6
802 -13z"/>
<path d="M18724 11329 c-6 -8 -68 -309 -138 -669 -70 -360 -129 -661 -132
-669 -4 -12 29 -13 213 -8 239 7 362 22 555 68 242 58 343 135 442 336 41 82
89 235 113 358 24 126 24 323 0 392 -33 95 -118 146 -295 179 -122 23 -742 33
-758 13z"/>
</g>
</svg>
